<svg width="45" height="50" viewBox="0 0 45 50" fill="none" xmlns="http://www.w3.org/2000/svg">
<rect width="44.6667" height="50" fill="black"/>
<path fill-rule="evenodd" clip-rule="evenodd" d="M13 10.3333V7.66667H26.3333V10.3333H13ZM12.3333 5C11.2288 5 10.3333 5.89543 10.3333 7V7.66667H9C6.79085 7.66667 5 9.45752 5 11.6667V38.3333C5 40.5424 6.79085 42.3333 9 42.3333H18.3333V39.6667H9C8.26363 39.6667 7.66667 39.0696 7.66667 38.3333V11.6667C7.66667 10.9303 8.26363 10.3333 9 10.3333H10.3333V11C10.3333 12.1046 11.2288 13 12.3333 13H27C28.1045 13 29 12.1046 29 11V10.3333H30.3333C31.0696 10.3333 31.6667 10.9303 31.6667 11.6667V23.6667H34.3333V11.6667C34.3333 9.45752 32.5424 7.66667 30.3333 7.66667H29V7C29 5.89543 28.1045 5 27 5H12.3333ZM23.6667 27.6667C23.6667 28.403 23.0697 29 22.3333 29C21.597 29 21 28.403 21 27.6667C21 26.9303 21.597 26.3333 22.3333 26.3333C23.0697 26.3333 23.6667 26.9303 23.6667 27.6667ZM27.6667 29C28.4029 29 29 28.403 29 27.6667C29 26.9303 28.4029 26.3333 27.6667 26.3333C26.9304 26.3333 26.3333 26.9303 26.3333 27.6667C26.3333 28.403 26.9304 29 27.6667 29ZM34.3333 27.6667C34.3333 28.403 33.7363 29 33 29C32.2637 29 31.6667 28.403 31.6667 27.6667C31.6667 26.9303 32.2637 26.3333 33 26.3333C33.7363 26.3333 34.3333 26.9303 34.3333 27.6667ZM38.3333 29C39.0696 29 39.6667 28.403 39.6667 27.6667C39.6667 26.9303 39.0696 26.3333 38.3333 26.3333C37.5971 26.3333 37 26.9303 37 27.6667C37 28.403 37.5971 29 38.3333 29ZM39.6667 33C39.6667 33.7363 39.0696 34.3333 38.3333 34.3333C37.5971 34.3333 37 33.7363 37 33C37 32.2637 37.5971 31.6667 38.3333 31.6667C39.0696 31.6667 39.6667 32.2637 39.6667 33ZM38.3333 39.6667C39.0696 39.6667 39.6667 39.0696 39.6667 38.3333C39.6667 37.5971 39.0696 37 38.3333 37C37.5971 37 37 37.5971 37 38.3333C37 39.0696 37.5971 39.6667 38.3333 39.6667ZM38.3333 45C39.0696 45 39.6667 44.4029 39.6667 43.6667C39.6667 42.9304 39.0696 42.3333 38.3333 42.3333C37.5971 42.3333 37 42.9304 37 43.6667C37 44.4029 37.5971 45 38.3333 45ZM22.3333 34.3333C23.0697 34.3333 23.6667 33.7363 23.6667 33C23.6667 32.2637 23.0697 31.6667 22.3333 31.6667C21.597 31.6667 21 32.2637 21 33C21 33.7363 21.597 34.3333 22.3333 34.3333ZM23.6667 38.3333C23.6667 39.0696 23.0697 39.6667 22.3333 39.6667C21.597 39.6667 21 39.0696 21 38.3333C21 37.5971 21.597 37 22.3333 37C23.0697 37 23.6667 37.5971 23.6667 38.3333ZM22.3333 45C23.0697 45 23.6667 44.4029 23.6667 43.6667C23.6667 42.9304 23.0697 42.3333 22.3333 42.3333C21.597 42.3333 21 42.9304 21 43.6667C21 44.4029 21.597 45 22.3333 45ZM29 43.6667C29 44.4029 28.4029 45 27.6667 45C26.9304 45 26.3333 44.4029 26.3333 43.6667C26.3333 42.9304 26.9304 42.3333 27.6667 42.3333C28.4029 42.3333 29 42.9304 29 43.6667ZM33 45C33.7363 45 34.3333 44.4029 34.3333 43.6667C34.3333 42.9304 33.7363 42.3333 33 42.3333C32.2637 42.3333 31.6667 42.9304 31.6667 43.6667C31.6667 44.4029 32.2637 45 33 45Z" fill="#F5F5F5"/>
</svg>